<svg xmlns="http://www.w3.org/2000/svg" viewBox="0 0 512 512">
  <!-- Background -->
  <rect width="512" height="512" rx="80" fill="#b86117"/>
  <!-- Top accent bar -->
  <rect x="0" y="0" width="512" height="6" rx="0" fill="#d97706"/>
  <!-- Book / pages icon -->
  <rect x="130" y="160" width="115" height="160" rx="8" fill="rgba(255,255,255,0.15)"/>
  <rect x="267" y="160" width="115" height="160" rx="8" fill="rgba(255,255,255,0.15)"/>
  <rect x="248" y="155" width="16" height="170" rx="4" fill="rgba(255,255,255,0.3)"/>
  <!-- Lines on pages -->
  <rect x="148" y="195" width="78" height="6" rx="3" fill="rgba(255,255,255,0.6)"/>
  <rect x="148" y="213" width="60" height="6" rx="3" fill="rgba(255,255,255,0.45)"/>
  <rect x="148" y="231" width="72" height="6" rx="3" fill="rgba(255,255,255,0.45)"/>
  <rect x="148" y="249" width="50" height="6" rx="3" fill="rgba(255,255,255,0.35)"/>
  <rect x="148" y="267" width="65" height="6" rx="3" fill="rgba(255,255,255,0.35)"/>
  <rect x="148" y="285" width="55" height="6" rx="3" fill="rgba(255,255,255,0.35)"/>
  <rect x="285" y="195" width="78" height="6" rx="3" fill="rgba(255,255,255,0.6)"/>
  <rect x="285" y="213" width="60" height="6" rx="3" fill="rgba(255,255,255,0.45)"/>
  <rect x="285" y="231" width="72" height="6" rx="3" fill="rgba(255,255,255,0.45)"/>
  <rect x="285" y="249" width="50" height="6" rx="3" fill="rgba(255,255,255,0.35)"/>
  <rect x="285" y="267" width="65" height="6" rx="3" fill="rgba(255,255,255,0.35)"/>
  <rect x="285" y="285" width="55" height="6" rx="3" fill="rgba(255,255,255,0.35)"/>
  <!-- Text: BPSC -->
  <text x="256" y="380" font-family="Georgia, serif" font-size="62" font-weight="700" fill="white" text-anchor="middle" letter-spacing="4">BPSC</text>
  <!-- Text: 365 -->
  <text x="256" y="440" font-family="Georgia, serif" font-size="38" font-weight="400" fill="rgba(255,255,255,0.75)" text-anchor="middle" letter-spacing="6">365</text>
</svg>
